<svg id="svg" version="1.1" xmlns="http://www.w3.org/2000/svg" xmlns:xlink="http://www.w3.org/1999/xlink" width="400" height="156.86274509803923" viewBox="0, 0, 400,156.86274509803923"><g id="svgg"><path id="path0" d="M58.083 36.342 C 54.599 36.664,52.791 37.003,51.333 37.607 C 50.554 37.931,48.867 38.527,47.583 38.933 C 46.300 39.339,44.866 39.877,44.396 40.128 C 43.926 40.378,42.838 40.958,41.979 41.417 C 40.956 41.963,40.116 42.561,39.544 43.153 C 39.064 43.649,38.374 44.252,38.011 44.493 C 37.647 44.733,37.085 45.277,36.761 45.701 C 36.437 46.126,35.761 46.707,35.255 46.997 C 34.751 47.286,34.055 47.869,33.710 48.293 C 33.366 48.718,32.707 49.444,32.248 49.907 C 31.789 50.371,31.151 51.112,30.831 51.555 C 30.512 51.997,30.014 52.688,29.726 53.089 C 29.437 53.491,28.973 54.500,28.694 55.332 C 28.415 56.164,27.929 57.199,27.614 57.631 C 26.848 58.683,26.468 59.476,25.921 61.167 C 25.668 61.946,25.218 63.033,24.919 63.583 C 22.366 68.288,22.312 82.111,24.827 87.250 C 25.186 87.983,25.642 89.146,25.842 89.833 C 26.245 91.223,26.772 92.344,27.565 93.496 C 27.855 93.918,28.419 95.086,28.818 96.090 C 29.237 97.144,29.768 98.166,30.073 98.507 C 30.364 98.831,30.855 99.468,31.163 99.923 C 31.908 101.020,34.648 103.722,36.001 104.693 C 36.596 105.120,37.946 106.302,39.000 107.320 C 40.580 108.846,41.166 109.294,42.333 109.869 C 43.112 110.253,44.100 110.817,44.528 111.122 C 45.400 111.742,46.492 112.154,48.864 112.757 C 49.751 112.982,51.064 113.383,51.781 113.647 C 57.097 115.607,68.570 115.624,73.473 113.680 C 73.962 113.486,75.237 113.101,76.306 112.824 C 79.282 112.054,79.849 111.842,80.750 111.163 C 81.208 110.818,82.089 110.291,82.708 109.991 C 83.326 109.692,84.330 109.028,84.939 108.516 C 85.547 108.003,86.479 107.246,87.008 106.833 C 89.631 104.790,90.203 104.295,91.716 102.750 C 92.615 101.833,93.543 100.783,93.780 100.417 C 94.016 100.050,94.679 99.112,95.252 98.333 C 95.825 97.554,96.553 96.354,96.870 95.667 C 97.187 94.979,97.708 94.106,98.028 93.727 C 98.348 93.347,98.866 92.447,99.180 91.727 C 99.493 91.006,100.096 89.742,100.518 88.917 C 102.840 84.385,103.000 67.308,100.758 63.417 C 100.547 63.050,100.099 62.000,99.762 61.083 C 98.817 58.506,98.812 58.495,98.119 57.694 C 97.759 57.279,97.095 56.147,96.641 55.178 C 96.188 54.209,95.566 53.154,95.258 52.833 C 94.951 52.512,94.478 51.897,94.208 51.465 C 93.678 50.618,92.251 48.963,90.917 47.646 C 88.371 45.135,87.858 44.665,87.250 44.285 C 86.883 44.056,86.283 43.554,85.917 43.170 C 85.550 42.785,84.725 42.205,84.083 41.880 C 83.442 41.555,82.527 41.040,82.052 40.736 C 80.553 39.779,79.895 39.509,77.373 38.820 C 76.022 38.451,74.579 37.976,74.167 37.765 C 71.679 36.493,63.900 35.805,58.083 36.342 M46.350 46.875 C 46.635 47.265,47.053 47.968,47.278 48.438 C 47.503 48.909,48.001 49.662,48.385 50.112 C 48.810 50.609,49.373 51.612,49.822 52.673 C 50.229 53.632,50.726 54.681,50.926 55.005 C 51.127 55.329,51.670 56.396,52.132 57.376 C 52.594 58.356,53.270 59.516,53.633 59.954 C 54.545 61.055,56.087 64.110,55.866 64.379 C 55.773 64.491,55.428 65.121,55.098 65.779 C 54.668 66.637,54.237 67.199,53.571 67.767 C 52.653 68.552,51.477 70.654,50.241 73.722 C 49.991 74.343,49.745 74.629,49.167 74.972 L 48.417 75.417 39.333 75.417 C 28.193 75.417,29.051 75.683,28.881 72.167 C 28.825 71.013,28.890 69.735,29.071 68.417 C 29.453 65.634,29.501 65.474,31.564 60.184 C 31.900 59.322,32.399 58.363,32.673 58.051 C 32.947 57.739,33.429 56.971,33.745 56.343 C 34.459 54.926,35.881 53.251,38.904 50.270 C 42.091 47.128,42.899 46.643,45.707 46.187 C 45.775 46.176,46.065 46.485,46.350 46.875 M82.730 47.116 C 83.000 47.256,83.564 47.722,83.985 48.152 C 84.406 48.582,85.255 49.289,85.872 49.723 C 88.187 51.352,90.726 54.244,91.514 56.152 C 91.802 56.848,92.366 57.948,92.768 58.597 C 93.242 59.361,93.790 60.653,94.323 62.263 C 94.776 63.631,95.410 65.500,95.733 66.417 C 96.959 69.906,97.043 74.032,95.905 74.939 C 95.261 75.453,93.339 75.542,84.417 75.473 C 74.929 75.399,75.155 75.485,73.690 71.378 C 72.885 69.122,72.828 69.015,71.858 67.944 C 71.260 67.283,70.944 66.715,70.527 65.551 L 69.982 64.025 70.485 62.599 C 71.062 60.963,71.343 60.382,72.057 59.339 C 72.337 58.929,72.888 57.853,73.281 56.947 C 73.674 56.042,74.261 54.939,74.586 54.496 C 74.911 54.054,75.483 53.038,75.858 52.237 C 76.233 51.437,76.821 50.475,77.165 50.100 C 77.509 49.724,77.943 49.117,78.130 48.750 C 78.317 48.383,78.708 47.756,79.000 47.355 L 79.531 46.626 80.886 46.744 C 81.630 46.809,82.460 46.977,82.730 47.116 M130.000 52.822 C 123.625 52.927,123.980 52.866,122.331 54.142 C 120.408 55.630,120.532 54.051,120.530 77.167 C 120.529 100.688,120.315 98.576,122.851 100.081 L 124.250 100.911 134.667 100.997 C 145.864 101.090,146.979 101.033,148.417 100.302 C 148.875 100.069,149.550 99.783,149.917 99.667 C 152.151 98.957,155.630 95.709,156.947 93.105 C 157.185 92.635,157.685 91.800,158.058 91.250 C 159.419 89.246,159.597 83.937,158.391 81.333 C 158.157 80.829,157.710 79.679,157.396 78.777 C 156.507 76.224,155.244 74.249,153.805 73.163 C 150.487 70.661,149.805 70.494,142.333 70.352 L 136.917 70.250 135.898 69.779 C 133.680 68.754,133.774 66.294,136.083 64.912 L 137.083 64.314 145.131 64.352 L 153.179 64.391 153.938 63.654 C 155.623 62.017,155.728 61.749,155.805 58.893 L 155.873 56.365 154.863 54.891 C 154.308 54.080,153.643 53.293,153.385 53.141 C 152.837 52.818,140.440 52.649,130.000 52.822 M206.417 53.507 C 204.873 54.287,203.774 55.358,203.461 56.388 C 203.296 56.933,203.250 61.491,203.250 77.500 L 203.250 97.917 203.694 98.667 C 204.870 100.653,205.845 100.994,210.355 100.998 L 213.293 101.000 214.688 100.292 C 215.874 99.690,216.146 99.471,216.500 98.833 L 216.917 98.083 217.000 91.417 C 217.115 82.214,216.740 82.816,222.407 82.745 L 226.328 82.696 227.300 83.325 C 229.087 84.480,228.959 83.884,229.029 91.377 C 229.099 98.739,229.021 98.281,230.454 99.826 C 231.206 100.636,231.314 100.693,232.417 100.862 C 233.832 101.079,238.386 100.953,239.076 100.678 C 239.711 100.426,241.763 98.769,242.038 98.287 C 242.206 97.993,242.250 93.628,242.250 77.069 L 242.250 56.222 241.552 55.319 C 239.759 53.002,239.436 52.861,235.882 52.843 C 231.712 52.823,230.979 53.109,229.671 55.268 L 229.106 56.200 229.011 62.670 L 228.917 69.140 228.510 69.573 C 227.431 70.721,226.709 70.865,222.329 70.805 L 218.360 70.750 217.915 70.333 C 217.082 69.554,217.089 69.611,217.000 62.667 L 216.916 56.083 216.403 55.167 C 215.937 54.337,215.756 54.183,214.490 53.542 L 213.091 52.833 210.421 52.834 L 207.750 52.834 206.417 53.507 M161.750 53.291 C 160.536 53.365,160.070 53.741,159.435 55.156 L 159.006 56.113 159.511 57.619 C 159.822 58.548,160.225 59.373,160.562 59.771 C 161.285 60.625,161.545 61.120,162.241 62.963 C 162.562 63.814,163.064 64.858,163.356 65.283 C 163.648 65.708,164.203 66.887,164.589 67.903 C 164.975 68.919,165.639 70.425,166.063 71.250 C 166.488 72.075,167.128 73.716,167.485 74.897 C 167.842 76.078,168.294 77.240,168.490 77.480 C 168.685 77.720,169.247 78.750,169.739 79.768 C 170.230 80.786,170.930 82.061,171.293 82.601 C 173.152 85.361,173.030 88.615,170.972 91.177 C 170.710 91.503,170.267 92.365,169.988 93.093 C 169.708 93.821,169.179 94.967,168.810 95.641 C 167.381 98.254,167.568 99.409,169.583 100.416 C 171.401 101.325,178.364 101.389,179.833 100.511 C 180.246 100.264,180.925 99.899,181.343 99.698 C 182.324 99.229,182.740 98.647,183.250 97.032 C 183.478 96.310,183.994 95.218,184.396 94.605 C 184.799 93.993,185.369 92.799,185.664 91.954 C 185.959 91.108,186.525 89.704,186.922 88.833 C 187.319 87.962,187.797 86.650,187.983 85.917 C 188.525 83.784,189.104 82.234,189.661 81.425 C 189.946 81.011,190.519 79.677,190.935 78.461 C 191.351 77.245,191.902 75.908,192.158 75.490 C 192.615 74.745,193.833 71.873,193.833 71.539 C 193.833 71.446,194.169 70.914,194.579 70.358 C 195.463 69.157,195.668 68.693,196.331 66.398 C 196.607 65.442,197.124 64.079,197.480 63.371 C 197.835 62.663,198.408 61.146,198.754 60.000 C 199.100 58.854,199.558 57.517,199.771 57.028 L 200.160 56.140 199.808 55.445 C 198.663 53.185,198.391 53.090,193.411 53.210 L 189.559 53.303 188.268 54.099 C 186.376 55.267,186.228 55.489,185.426 58.369 C 185.280 58.892,184.811 59.830,184.383 60.452 C 183.890 61.169,183.376 62.242,182.977 63.385 C 182.107 65.880,181.921 66.134,180.358 66.966 L 179.031 67.673 178.700 67.128 C 178.518 66.829,178.092 65.683,177.754 64.583 C 177.416 63.483,176.844 62.031,176.483 61.356 C 176.122 60.681,175.562 59.339,175.240 58.374 C 174.448 56.007,174.429 55.978,172.735 54.482 L 171.250 53.172 167.000 53.201 C 164.662 53.217,162.300 53.257,161.750 53.291 M252.083 53.347 C 250.705 53.761,249.596 54.590,249.083 55.587 L 248.583 56.560 248.583 77.417 L 248.583 98.274 249.043 98.969 C 249.395 99.501,249.815 99.822,250.831 100.332 L 252.159 101.000 254.955 101.001 C 258.525 101.001,259.869 100.675,260.740 99.597 C 261.789 98.298,261.743 98.639,261.833 91.500 C 261.913 85.242,261.934 84.888,262.259 84.333 L 262.601 83.750 263.990 83.701 C 265.665 83.642,265.888 83.792,266.785 85.583 C 267.107 86.225,267.538 86.975,267.745 87.250 C 268.227 87.893,269.062 89.561,269.329 90.417 C 269.444 90.783,269.950 91.859,270.453 92.808 C 270.957 93.757,271.655 95.320,272.004 96.283 C 272.878 98.689,274.256 99.897,277.000 100.660 C 279.819 101.443,285.613 101.245,286.586 100.331 C 287.025 99.919,287.833 98.369,287.833 97.940 C 287.833 96.867,287.090 95.151,286.162 94.078 C 285.790 93.648,285.234 92.798,284.926 92.190 C 284.617 91.581,284.093 90.633,283.760 90.083 C 283.427 89.533,282.840 88.111,282.456 86.922 C 282.037 85.626,281.534 84.435,281.198 83.948 C 280.891 83.500,280.298 82.458,279.881 81.632 C 279.464 80.805,278.793 79.757,278.390 79.303 C 277.489 78.289,276.884 77.346,276.732 76.722 C 276.669 76.462,276.447 75.862,276.240 75.387 L 275.863 74.525 276.278 73.971 C 276.506 73.666,276.914 72.985,277.183 72.456 C 277.453 71.928,278.046 71.085,278.501 70.583 C 278.956 70.080,279.440 69.401,279.577 69.073 C 279.714 68.745,280.303 67.751,280.886 66.864 C 281.468 65.976,282.161 64.733,282.424 64.101 C 282.688 63.469,283.250 62.457,283.673 61.851 C 284.097 61.245,284.768 60.188,285.165 59.500 C 285.561 58.813,286.098 58.005,286.357 57.706 C 287.419 56.477,287.409 55.076,286.329 53.996 C 285.068 52.735,277.276 53.092,274.107 54.557 C 272.750 55.183,272.529 55.435,271.612 57.393 C 271.275 58.114,270.784 58.976,270.521 59.310 C 270.258 59.644,269.767 60.466,269.429 61.138 C 269.092 61.810,268.522 62.679,268.162 63.069 C 267.558 63.724,267.271 64.256,266.117 66.861 C 265.867 67.424,265.507 67.926,265.224 68.105 C 264.963 68.269,264.350 68.763,263.862 69.202 C 262.889 70.076,262.676 70.145,262.301 69.708 C 261.816 69.143,261.778 68.694,261.679 62.417 L 261.579 56.083 261.098 55.212 C 260.442 54.023,260.253 53.884,258.753 53.501 C 257.340 53.140,253.098 53.042,252.083 53.347 M294.903 53.317 C 293.693 53.436,293.010 53.893,291.956 55.289 L 291.250 56.224 291.201 77.154 L 291.153 98.083 292.201 99.179 C 294.049 101.110,292.390 100.909,306.993 100.967 C 323.661 101.033,322.999 101.116,324.567 98.768 C 325.296 97.677,325.116 90.860,324.334 89.917 C 323.467 88.873,321.811 88.717,311.152 88.681 L 307.053 88.667 306.038 88.159 L 305.022 87.652 304.917 86.701 C 304.860 86.178,304.778 85.563,304.736 85.333 C 304.639 84.804,305.432 83.808,306.481 83.143 L 307.232 82.667 312.415 82.667 L 317.598 82.667 319.008 82.194 C 321.194 81.461,321.400 81.044,321.469 77.205 C 321.543 73.129,321.063 71.615,319.583 71.254 C 319.308 71.187,316.383 71.083,313.082 71.022 L 307.081 70.913 306.332 70.472 C 304.950 69.659,304.812 69.410,304.868 67.820 L 304.917 66.426 305.973 65.880 L 307.029 65.333 313.462 65.333 C 323.528 65.333,323.709 65.283,324.246 62.356 C 325.192 57.198,324.226 54.086,321.492 53.484 C 320.068 53.171,297.812 53.031,294.903 53.317 M332.583 53.476 C 330.724 54.169,330.541 54.288,330.058 55.110 L 329.583 55.917 329.537 76.833 C 329.483 101.525,329.231 99.101,331.989 100.423 L 333.194 101.000 335.923 101.000 C 342.732 101.000,342.959 100.716,343.327 91.750 C 343.540 86.545,343.407 86.663,349.250 86.481 C 351.267 86.418,353.142 86.326,353.417 86.276 C 353.692 86.226,354.517 86.097,355.250 85.989 C 358.085 85.573,362.390 83.134,365.024 80.450 C 367.480 77.948,367.932 65.300,365.721 60.952 C 365.310 60.144,362.992 57.669,362.330 57.332 C 361.981 57.153,361.268 56.635,360.748 56.179 C 359.878 55.418,359.545 55.264,356.692 54.304 L 353.583 53.259 343.500 53.212 C 334.002 53.167,333.368 53.183,332.583 53.476 M350.528 65.589 C 353.512 66.217,354.766 70.754,352.532 72.839 C 350.783 74.471,345.662 74.407,343.884 72.730 L 343.311 72.189 343.364 69.433 C 343.425 66.269,343.404 66.317,344.964 65.717 C 346.145 65.263,348.697 65.204,350.528 65.589 M65.500 70.881 L 66.917 71.417 67.623 72.833 C 70.276 78.152,65.527 82.998,59.947 80.667 C 57.045 79.454,56.164 73.731,58.543 71.545 C 59.905 70.294,63.130 69.986,65.500 70.881 M143.149 81.820 C 143.542 82.100,143.905 82.635,144.337 83.571 L 144.960 84.919 144.695 86.311 C 144.263 88.576,143.471 88.981,139.462 88.993 C 134.343 89.007,133.396 87.807,134.685 82.943 C 134.835 82.376,134.972 82.248,135.885 81.819 C 137.341 81.135,142.189 81.136,143.149 81.820 M60.361 87.438 C 61.791 87.954,63.338 87.922,65.140 87.341 C 68.121 86.379,69.292 86.829,70.583 89.433 C 71.133 90.542,71.757 91.685,71.968 91.973 C 72.180 92.261,72.715 93.266,73.157 94.206 C 73.599 95.147,74.204 96.217,74.501 96.583 C 74.798 96.950,75.360 97.925,75.749 98.750 C 76.138 99.575,76.843 100.726,77.316 101.308 C 78.419 102.667,78.568 102.974,78.898 104.583 L 79.172 105.917 78.628 106.381 C 78.328 106.637,77.533 107.107,76.860 107.427 C 76.188 107.746,75.363 108.226,75.027 108.492 C 72.880 110.196,62.676 111.360,57.750 110.462 C 56.925 110.311,55.538 110.100,54.667 109.992 C 52.520 109.725,51.080 109.257,50.083 108.502 C 49.625 108.154,48.800 107.644,48.250 107.367 C 47.700 107.091,47.037 106.640,46.777 106.366 L 46.303 105.867 46.594 104.642 C 46.944 103.170,47.432 102.146,48.249 101.168 C 48.953 100.325,49.329 99.628,49.904 98.100 C 50.131 97.497,50.644 96.459,51.043 95.793 C 51.443 95.128,51.953 94.152,52.177 93.624 C 52.400 93.096,52.862 92.309,53.203 91.874 C 53.544 91.439,54.107 90.574,54.453 89.951 C 55.666 87.772,56.056 87.259,56.585 87.146 C 57.769 86.893,59.144 86.999,60.361 87.438 " stroke="none" fill="#e9e9e9" fill-rule="evenodd"></path><path id="path1" d="M0.000 78.417 L 0.000 156.833 200.000 156.833 L 400.000 156.833 400.000 78.417 L 400.000 0.000 200.000 0.000 L 0.000 0.000 0.000 78.417 M70.000 36.583 C 71.937 36.876,73.040 37.189,74.167 37.765 C 74.579 37.976,76.022 38.451,77.373 38.820 C 79.895 39.509,80.553 39.779,82.052 40.736 C 82.527 41.040,83.442 41.555,84.083 41.880 C 84.725 42.205,85.550 42.785,85.917 43.170 C 86.283 43.554,86.883 44.056,87.250 44.285 C 87.858 44.665,88.371 45.135,90.917 47.646 C 92.251 48.963,93.678 50.618,94.208 51.465 C 94.478 51.897,94.951 52.512,95.258 52.833 C 95.566 53.154,96.188 54.209,96.641 55.178 C 97.095 56.147,97.759 57.279,98.119 57.694 C 98.812 58.495,98.817 58.506,99.762 61.083 C 100.099 62.000,100.547 63.050,100.758 63.417 C 103.000 67.308,102.840 84.385,100.518 88.917 C 100.096 89.742,99.493 91.006,99.180 91.727 C 98.866 92.447,98.348 93.347,98.028 93.727 C 97.708 94.106,97.187 94.979,96.870 95.667 C 96.553 96.354,95.825 97.554,95.252 98.333 C 94.679 99.112,94.016 100.050,93.780 100.417 C 93.543 100.783,92.615 101.833,91.716 102.750 C 90.203 104.295,89.631 104.790,87.008 106.833 C 86.479 107.246,85.547 108.003,84.939 108.516 C 84.330 109.028,83.326 109.692,82.708 109.991 C 82.089 110.291,81.208 110.818,80.750 111.163 C 79.849 111.842,79.282 112.054,76.306 112.824 C 75.237 113.101,73.962 113.486,73.473 113.680 C 68.570 115.624,57.097 115.607,51.781 113.647 C 51.064 113.383,49.751 112.982,48.864 112.757 C 46.492 112.154,45.400 111.742,44.528 111.122 C 44.100 110.817,43.112 110.253,42.333 109.869 C 41.166 109.294,40.580 108.846,39.000 107.320 C 37.946 106.302,36.596 105.120,36.001 104.693 C 34.648 103.722,31.908 101.020,31.163 99.923 C 30.855 99.468,30.364 98.831,30.073 98.507 C 29.768 98.166,29.237 97.144,28.818 96.090 C 28.419 95.086,27.855 93.918,27.565 93.496 C 26.772 92.344,26.245 91.223,25.842 89.833 C 25.642 89.146,25.186 87.983,24.827 87.250 C 22.312 82.111,22.366 68.288,24.919 63.583 C 25.218 63.033,25.668 61.946,25.921 61.167 C 26.468 59.476,26.848 58.683,27.614 57.631 C 27.929 57.199,28.415 56.164,28.694 55.332 C 28.973 54.500,29.437 53.491,29.726 53.089 C 30.014 52.688,30.512 51.997,30.831 51.555 C 31.151 51.112,31.789 50.371,32.248 49.907 C 32.707 49.444,33.366 48.718,33.710 48.293 C 34.055 47.869,34.751 47.286,35.255 46.997 C 35.761 46.707,36.437 46.126,36.761 45.701 C 37.085 45.277,37.647 44.733,38.011 44.493 C 38.374 44.252,39.064 43.649,39.544 43.153 C 40.116 42.561,40.956 41.963,41.979 41.417 C 42.838 40.958,43.926 40.378,44.396 40.128 C 44.866 39.877,46.300 39.339,47.583 38.933 C 48.867 38.527,50.554 37.931,51.333 37.607 C 54.485 36.300,64.488 35.751,70.000 36.583 M44.283 46.502 C 42.556 46.894,41.767 47.447,38.904 50.270 C 35.881 53.251,34.459 54.926,33.745 56.343 C 33.429 56.971,32.947 57.739,32.673 58.051 C 32.399 58.363,31.900 59.322,31.564 60.184 C 29.501 65.474,29.453 65.634,29.071 68.417 C 28.890 69.735,28.825 71.013,28.881 72.167 C 29.051 75.683,28.193 75.417,39.333 75.417 L 48.417 75.417 49.167 74.972 C 49.745 74.629,49.991 74.343,50.241 73.722 C 51.477 70.654,52.653 68.552,53.571 67.767 C 54.237 67.199,54.668 66.637,55.098 65.779 C 55.428 65.121,55.773 64.491,55.866 64.379 C 56.087 64.110,54.545 61.055,53.633 59.954 C 53.270 59.516,52.594 58.356,52.132 57.376 C 51.670 56.396,51.127 55.329,50.926 55.005 C 50.726 54.681,50.229 53.632,49.822 52.673 C 49.373 51.612,48.810 50.609,48.385 50.112 C 48.001 49.662,47.503 48.909,47.278 48.438 C 46.818 47.478,45.896 46.156,45.707 46.187 C 45.639 46.198,44.998 46.340,44.283 46.502 M79.000 47.355 C 78.708 47.756,78.317 48.383,78.130 48.750 C 77.943 49.117,77.509 49.724,77.165 50.100 C 76.821 50.475,76.233 51.437,75.858 52.237 C 75.483 53.038,74.911 54.054,74.586 54.496 C 74.261 54.939,73.674 56.042,73.281 56.947 C 72.888 57.853,72.337 58.929,72.057 59.339 C 71.343 60.382,71.062 60.963,70.485 62.599 L 69.982 64.025 70.527 65.551 C 70.944 66.715,71.260 67.283,71.858 67.944 C 72.828 69.015,72.885 69.122,73.690 71.378 C 75.155 75.485,74.929 75.399,84.417 75.473 C 93.339 75.542,95.261 75.453,95.905 74.939 C 97.043 74.032,96.959 69.906,95.733 66.417 C 95.410 65.500,94.776 63.631,94.323 62.263 C 93.790 60.653,93.242 59.361,92.768 58.597 C 92.366 57.948,91.802 56.848,91.514 56.152 C 90.726 54.244,88.187 51.352,85.872 49.723 C 85.255 49.289,84.406 48.582,83.985 48.152 C 82.957 47.101,82.479 46.883,80.886 46.744 L 79.531 46.626 79.000 47.355 M153.385 53.141 C 153.643 53.293,154.308 54.080,154.863 54.891 L 155.873 56.365 155.805 58.893 C 155.728 61.749,155.623 62.017,153.938 63.654 L 153.179 64.391 145.131 64.352 L 137.083 64.314 136.083 64.912 C 134.620 65.788,134.292 66.233,134.398 67.202 C 134.584 68.924,134.782 69.264,135.898 69.779 L 136.917 70.250 142.333 70.352 C 149.209 70.482,150.112 70.647,152.420 72.190 C 155.114 73.992,156.258 75.507,157.396 78.777 C 157.710 79.679,158.157 80.829,158.391 81.333 C 159.597 83.937,159.419 89.246,158.058 91.250 C 157.685 91.800,157.185 92.635,156.947 93.105 C 155.630 95.709,152.151 98.957,149.917 99.667 C 149.550 99.783,148.875 100.069,148.417 100.302 C 146.979 101.033,145.864 101.090,134.667 100.997 L 124.250 100.911 122.851 100.081 C 120.987 98.975,120.778 98.670,120.640 96.863 C 120.496 94.988,120.497 59.389,120.641 57.404 C 120.785 55.407,121.511 54.409,123.683 53.226 C 124.774 52.631,152.385 52.552,153.385 53.141 M214.490 53.542 C 215.756 54.183,215.937 54.337,216.403 55.167 L 216.916 56.083 217.000 62.667 C 217.089 69.611,217.082 69.554,217.915 70.333 L 218.360 70.750 222.329 70.805 C 226.709 70.865,227.431 70.721,228.510 69.573 L 228.917 69.140 229.011 62.670 L 229.106 56.200 229.671 55.268 C 230.979 53.109,231.712 52.823,235.882 52.843 C 239.436 52.861,239.759 53.002,241.552 55.319 L 242.250 56.222 242.250 77.069 C 242.250 93.628,242.206 97.993,242.038 98.287 C 241.763 98.769,239.711 100.426,239.076 100.678 C 238.386 100.953,233.832 101.079,232.417 100.862 C 231.314 100.693,231.206 100.636,230.454 99.826 C 229.021 98.281,229.099 98.739,229.029 91.377 C 228.959 83.884,229.087 84.480,227.300 83.325 L 226.328 82.696 222.407 82.745 C 216.740 82.816,217.115 82.214,217.000 91.417 L 216.917 98.083 216.500 98.833 C 216.146 99.471,215.874 99.690,214.688 100.292 L 213.293 101.000 210.355 100.998 C 205.845 100.994,204.870 100.653,203.694 98.667 L 203.250 97.917 203.250 77.500 C 203.250 61.491,203.296 56.933,203.461 56.388 C 203.774 55.358,204.873 54.287,206.417 53.507 L 207.750 52.834 210.421 52.834 L 213.091 52.833 214.490 53.542 M172.735 54.482 C 174.429 55.978,174.448 56.007,175.240 58.374 C 175.562 59.339,176.122 60.681,176.483 61.356 C 176.844 62.031,177.416 63.483,177.754 64.583 C 178.092 65.683,178.518 66.829,178.700 67.128 L 179.031 67.673 180.358 66.966 C 181.921 66.134,182.107 65.880,182.977 63.385 C 183.376 62.242,183.890 61.169,184.383 60.452 C 184.811 59.830,185.280 58.892,185.426 58.369 C 186.228 55.489,186.376 55.267,188.268 54.099 L 189.559 53.303 193.411 53.210 C 198.391 53.090,198.663 53.185,199.808 55.445 L 200.160 56.140 199.771 57.028 C 199.558 57.517,199.100 58.854,198.754 60.000 C 198.408 61.146,197.835 62.663,197.480 63.371 C 197.124 64.079,196.607 65.442,196.331 66.398 C 195.668 68.693,195.463 69.157,194.579 70.358 C 194.169 70.914,193.833 71.446,193.833 71.539 C 193.833 71.873,192.615 74.745,192.158 75.490 C 191.902 75.908,191.351 77.245,190.935 78.461 C 190.519 79.677,189.946 81.011,189.661 81.425 C 189.104 82.234,188.525 83.784,187.983 85.917 C 187.797 86.650,187.319 87.962,186.922 88.833 C 186.525 89.704,185.959 91.108,185.664 91.954 C 185.369 92.799,184.799 93.993,184.396 94.605 C 183.994 95.218,183.478 96.310,183.250 97.032 C 182.740 98.647,182.324 99.229,181.343 99.698 C 180.925 99.899,180.246 100.264,179.833 100.511 C 178.364 101.389,171.401 101.325,169.583 100.416 C 167.568 99.409,167.381 98.254,168.810 95.641 C 169.179 94.967,169.708 93.821,169.988 93.093 C 170.267 92.365,170.710 91.503,170.972 91.177 C 173.030 88.615,173.152 85.361,171.293 82.601 C 170.930 82.061,170.230 80.786,169.739 79.768 C 169.247 78.750,168.685 77.720,168.490 77.480 C 168.294 77.240,167.842 76.078,167.485 74.897 C 167.128 73.716,166.488 72.075,166.063 71.250 C 165.639 70.425,164.975 68.919,164.589 67.903 C 164.203 66.887,163.648 65.708,163.356 65.283 C 163.064 64.858,162.562 63.814,162.241 62.963 C 161.545 61.120,161.285 60.625,160.562 59.771 C 160.225 59.373,159.822 58.548,159.511 57.619 L 159.006 56.113 159.435 55.156 C 160.318 53.188,160.086 53.248,167.000 53.201 L 171.250 53.172 172.735 54.482 M258.753 53.501 C 260.253 53.884,260.442 54.023,261.098 55.212 L 261.579 56.083 261.679 62.417 C 261.778 68.694,261.816 69.143,262.301 69.708 C 262.676 70.145,262.889 70.076,263.862 69.202 C 264.350 68.763,264.963 68.269,265.224 68.105 C 265.507 67.926,265.867 67.424,266.117 66.861 C 267.271 64.256,267.558 63.724,268.162 63.069 C 268.522 62.679,269.092 61.810,269.429 61.138 C 269.767 60.466,270.258 59.644,270.521 59.310 C 270.784 58.976,271.275 58.114,271.612 57.393 C 272.529 55.435,272.750 55.183,274.107 54.557 C 277.276 53.092,285.068 52.735,286.329 53.996 C 287.409 55.076,287.419 56.477,286.357 57.706 C 286.098 58.005,285.561 58.813,285.165 59.500 C 284.768 60.188,284.097 61.245,283.673 61.851 C 283.250 62.457,282.688 63.469,282.424 64.101 C 282.161 64.733,281.468 65.976,280.886 66.864 C 280.303 67.751,279.714 68.745,279.577 69.073 C 279.440 69.401,278.956 70.080,278.501 70.583 C 278.046 71.085,277.453 71.928,277.183 72.456 C 276.914 72.985,276.506 73.666,276.278 73.971 L 275.863 74.525 276.240 75.387 C 276.447 75.862,276.669 76.462,276.732 76.722 C 276.884 77.346,277.489 78.289,278.390 79.303 C 278.793 79.757,279.464 80.805,279.881 81.632 C 280.298 82.458,280.891 83.500,281.198 83.948 C 281.534 84.435,282.037 85.626,282.456 86.922 C 282.840 88.111,283.427 89.533,283.760 90.083 C 284.093 90.633,284.617 91.581,284.926 92.190 C 285.234 92.798,285.790 93.648,286.162 94.078 C 288.078 96.292,288.246 98.771,286.586 100.331 C 285.613 101.245,279.819 101.443,277.000 100.660 C 274.256 99.897,272.878 98.689,272.004 96.283 C 271.655 95.320,270.957 93.757,270.453 92.808 C 269.950 91.859,269.444 90.783,269.329 90.417 C 269.062 89.561,268.227 87.893,267.745 87.250 C 267.538 86.975,267.107 86.225,266.785 85.583 C 265.888 83.792,265.665 83.642,263.990 83.701 L 262.601 83.750 262.259 84.333 C 261.934 84.888,261.913 85.242,261.833 91.500 C 261.743 98.639,261.789 98.298,260.740 99.597 C 259.869 100.675,258.525 101.001,254.955 101.001 L 252.159 101.000 250.831 100.332 C 249.815 99.822,249.395 99.501,249.043 98.969 L 248.583 98.274 248.583 77.417 L 248.583 56.560 249.083 55.587 C 250.218 53.380,254.591 52.436,258.753 53.501 M321.492 53.484 C 324.226 54.086,325.192 57.198,324.246 62.356 C 323.709 65.283,323.528 65.333,313.462 65.333 L 307.029 65.333 305.973 65.880 L 304.917 66.426 304.868 67.820 C 304.812 69.410,304.950 69.659,306.332 70.472 L 307.081 70.913 313.082 71.022 C 316.383 71.083,319.308 71.187,319.583 71.254 C 321.063 71.615,321.543 73.129,321.469 77.205 C 321.400 81.044,321.194 81.461,319.008 82.194 L 317.598 82.667 312.415 82.667 L 307.232 82.667 306.481 83.143 C 305.432 83.808,304.639 84.804,304.736 85.333 C 304.778 85.563,304.860 86.178,304.917 86.701 L 305.022 87.652 306.038 88.159 L 307.053 88.667 311.152 88.681 C 321.811 88.717,323.467 88.873,324.334 89.917 C 325.116 90.860,325.296 97.677,324.567 98.768 C 322.999 101.116,323.661 101.033,306.993 100.967 C 292.390 100.909,294.049 101.110,292.201 99.179 L 291.153 98.083 291.201 77.154 L 291.250 56.224 291.956 55.289 C 293.010 53.893,293.693 53.436,294.903 53.317 C 297.812 53.031,320.068 53.171,321.492 53.484 M356.692 54.304 C 359.545 55.264,359.878 55.418,360.748 56.179 C 361.268 56.635,361.981 57.153,362.330 57.332 C 362.992 57.669,365.310 60.144,365.721 60.952 C 367.932 65.300,367.480 77.948,365.024 80.450 C 362.390 83.134,358.085 85.573,355.250 85.989 C 354.517 86.097,353.692 86.226,353.417 86.276 C 353.142 86.326,351.267 86.418,349.250 86.481 C 343.407 86.663,343.540 86.545,343.327 91.750 C 342.959 100.716,342.732 101.000,335.923 101.000 L 333.194 101.000 331.989 100.423 C 329.231 99.101,329.483 101.525,329.537 76.833 L 329.583 55.917 330.058 55.110 C 330.541 54.288,330.724 54.169,332.583 53.476 C 333.368 53.183,334.002 53.167,343.500 53.212 L 353.583 53.259 356.692 54.304 M344.964 65.717 C 343.404 66.317,343.425 66.269,343.364 69.433 L 343.311 72.189 343.884 72.730 C 345.662 74.407,350.783 74.471,352.532 72.839 C 354.073 71.400,353.883 67.895,352.176 66.259 C 351.209 65.332,346.823 65.002,344.964 65.717 M60.083 70.777 C 58.561 71.332,58.272 71.623,57.648 73.236 C 56.478 76.260,57.528 79.656,59.947 80.667 C 65.527 82.998,70.276 78.152,67.623 72.833 L 66.917 71.417 65.500 70.881 C 63.620 70.171,61.839 70.137,60.083 70.777 M135.885 81.819 C 134.972 82.248,134.835 82.376,134.685 82.943 C 133.396 87.807,134.343 89.007,139.462 88.993 C 143.471 88.981,144.263 88.576,144.695 86.311 L 144.960 84.919 144.337 83.571 C 143.377 81.493,143.238 81.426,139.750 81.375 C 136.930 81.334,136.912 81.337,135.885 81.819 M56.585 87.146 C 56.056 87.259,55.666 87.772,54.453 89.951 C 54.107 90.574,53.544 91.439,53.203 91.874 C 52.862 92.309,52.400 93.096,52.177 93.624 C 51.953 94.152,51.443 95.128,51.043 95.793 C 50.644 96.459,50.131 97.497,49.904 98.100 C 49.329 99.628,48.953 100.325,48.249 101.168 C 47.432 102.146,46.944 103.170,46.594 104.642 L 46.303 105.867 46.777 106.366 C 47.037 106.640,47.700 107.091,48.250 107.367 C 48.800 107.644,49.625 108.154,50.083 108.502 C 51.080 109.257,52.520 109.725,54.667 109.992 C 55.538 110.100,56.925 110.311,57.750 110.462 C 62.676 111.360,72.880 110.196,75.027 108.492 C 75.363 108.226,76.188 107.746,76.860 107.427 C 77.533 107.107,78.328 106.637,78.628 106.381 L 79.172 105.917 78.898 104.583 C 78.568 102.974,78.419 102.667,77.316 101.308 C 76.843 100.726,76.138 99.575,75.749 98.750 C 75.360 97.925,74.798 96.950,74.501 96.583 C 74.204 96.217,73.599 95.147,73.157 94.206 C 72.715 93.266,72.180 92.261,71.968 91.973 C 71.757 91.685,71.133 90.542,70.583 89.433 C 69.292 86.829,68.121 86.379,65.140 87.341 C 63.338 87.922,61.791 87.954,60.361 87.438 C 59.144 86.999,57.769 86.893,56.585 87.146 " stroke="none" fill="#040404" fill-rule="evenodd"></path></g></svg>